<?xml version="1.0" encoding="UTF-8" standalone="no"?>
<!-- Created with Inkscape (http://www.inkscape.org/) -->

<svg
   xmlns:dc="http://purl.org/dc/elements/1.1/"
   xmlns:cc="http://creativecommons.org/ns#"
   xmlns:rdf="http://www.w3.org/1999/02/22-rdf-syntax-ns#"
   xmlns:svg="http://www.w3.org/2000/svg"
   xmlns="http://www.w3.org/2000/svg"
   xmlns:sodipodi="http://sodipodi.sourceforge.net/DTD/sodipodi-0.dtd"
   xmlns:inkscape="http://www.inkscape.org/namespaces/inkscape"
   width="1000pc"
   height="650pc"
   viewBox="0 0 2540.0386 1651.0276"
   version="1.1"
   id="svg4758"
   inkscape:version="0.92.3 (2405546, 2018-03-11)"
   sodipodi:docname="logolarge.svg"
   inkscape:export-filename="C:\Users\mrrob\Documents\Web Development\RPMoney\current\images\logo.png"
   inkscape:export-xdpi="190.0791"
   inkscape:export-ydpi="190.0791">
  <defs
     id="defs4752" />
  <sodipodi:namedview
     id="base"
     pagecolor="#ffffff"
     bordercolor="#666666"
     borderopacity="1.0"
     inkscape:pageopacity="0.0"
     inkscape:pageshadow="2"
     inkscape:zoom="0.022097087"
     inkscape:cx="998.88248"
     inkscape:cy="462.56587"
     inkscape:document-units="px"
     inkscape:current-layer="layer1"
     showgrid="false"
     units="pc"
     inkscape:window-width="1920"
     inkscape:window-height="1017"
     inkscape:window-x="-8"
     inkscape:window-y="-8"
     inkscape:window-maximized="1"
     scale-x="0.60001"
     viewbox-x="0" />
  <metadata
     id="metadata4755">
    <rdf:RDF>
      <cc:Work
         rdf:about="">
        <dc:format>image/svg+xml</dc:format>
        <dc:type
           rdf:resource="http://purl.org/dc/dcmitype/StillImage" />
        <dc:title></dc:title>
      </cc:Work>
    </rdf:RDF>
  </metadata>
  <g
     inkscape:label="Layer 1"
     inkscape:groupmode="layer"
     id="layer1"
     transform="translate(0,1433.4006)">
    <g
       aria-label="RP"
       style="font-style:normal;font-weight:normal;font-size:10.58333302px;line-height:1.25;font-family:sans-serif;letter-spacing:0px;word-spacing:0px;fill:#000000;fill-opacity:1;stroke:none;stroke-width:0.26458332"
       id="text4779"
       transform="matrix(55.096681,0,0,55.096681,333.84492,-16415.641)">
      <path
         d="M 11.136811,285.07837 H 9.3200052 v 4.25098 H 6.3390329 v -11.64167 h 5.5562501 q 2.116667,0 3.245556,0.9525 1.146527,0.9525 1.146527,2.75167 0,1.27 -0.582083,2.11666 -0.582083,0.84667 -1.693333,1.25236 l 2.963333,4.56848 h -3.351389 z m -1.8168058,-2.15194 h 2.0637498 q 0.970139,0 1.411111,-0.35278 0.440973,-0.35278 0.440973,-1.12889 0,-0.75847 -0.440973,-1.11125 -0.440972,-0.35278 -1.411111,-0.35278 H 9.3200052 Z"
         style="font-style:normal;font-variant:normal;font-weight:bold;font-stretch:normal;font-size:17.63888931px;font-family:'Work Sans';-inkscape-font-specification:'Work Sans, Bold';font-variant-ligatures:normal;font-variant-caps:normal;font-variant-numeric:normal;font-feature-settings:normal;text-align:start;writing-mode:lr-tb;text-anchor:start;fill:#ff0000;stroke-width:0.26458332"
         id="path4796"
         inkscape:connector-curvature="0" />
      <path
         d="m 23.844804,277.68768 q 2.169583,0 3.33375,1.00542 1.164166,0.98777 1.164166,2.8575 0,1.78152 -1.164166,2.7693 -1.164167,0.97014 -3.33375,0.97014 h -2.310695 v 4.03931 H 18.50022 v -11.64167 z m -0.47625,5.37986 q 0.987777,0 1.446388,-0.37042 0.47625,-0.38805 0.47625,-1.1818 0,-0.77611 -0.47625,-1.14653 -0.458611,-0.38806 -1.446388,-0.38806 h -1.834445 v 3.08681 z"
         style="font-style:normal;font-variant:normal;font-weight:bold;font-stretch:normal;font-size:17.63888931px;font-family:'Work Sans';-inkscape-font-specification:'Work Sans, Bold';font-variant-ligatures:normal;font-variant-caps:normal;font-variant-numeric:normal;font-feature-settings:normal;text-align:start;writing-mode:lr-tb;text-anchor:start;fill:#ff0000;stroke-width:0.26458332"
         id="path4798"
         inkscape:connector-curvature="0" />
    </g>
    <g
       aria-label="MONEY"
       transform="matrix(57.959929,0,0,52.374879,333.84492,-16415.641)"
       style="font-style:normal;font-weight:normal;font-size:8.25318527px;line-height:1.25;font-family:sans-serif;letter-spacing:0px;word-spacing:0px;fill:#000000;fill-opacity:1;stroke:none;stroke-width:0.20632961"
       id="text4783">
      <path
         d="M 0.55824002,306.81236 H 1.8040416 l 2.3937187,3.69291 2.3551582,-3.69291 h 1.2517339 v 0.33221 H 6.9533547 v 3.40816 h 0.8512977 v 0.33518 H 5.7342489 v -0.33518 h 0.8512977 v -3.1323 l -2.2365104,3.46748 H 4.0197886 L 1.780312,307.4056 v 3.14713 h 0.8483316 v 0.33518 H 0.55824002 v -0.33518 H 1.4095378 v -3.40816 H 0.55824002 Z"
         style="font-style:normal;font-variant:normal;font-weight:normal;font-stretch:expanded;font-size:6.07476568px;font-family:'Stint Ultra Expanded';-inkscape-font-specification:'Stint Ultra Expanded, Expanded';font-variant-ligatures:normal;font-variant-caps:normal;font-variant-numeric:normal;font-feature-settings:normal;text-align:start;writing-mode:lr-tb;text-anchor:start;fill:#e6e6e6;stroke-width:0.20632961"
         id="path4785"
         inkscape:connector-curvature="0" />
      <path
         d="m 13.627292,308.8531 q 0,0.54875 -0.198735,0.94918 -0.198735,0.39747 -0.54578,0.6585 -0.347045,0.25806 -0.81867,0.38264 -0.471624,0.12458 -1.017404,0.12458 -0.548746,0 -1.023337,-0.12458 -0.4745912,-0.12458 -0.8246022,-0.38264 -0.3500109,-0.26103 -0.5487459,-0.6585 -0.198735,-0.40043 -0.198735,-0.94918 0,-0.36484 0.091952,-0.66146 0.091952,-0.29959 0.2580589,-0.53392 0.1661069,-0.23729 0.4004362,-0.40933 0.2372956,-0.17204 0.5250164,-0.28476 0.2906866,-0.11568 0.6229006,-0.16907 0.332214,-0.0564 0.697056,-0.0564 0.54578,0 1.017404,0.12458 0.471625,0.12458 0.81867,0.38561 0.347045,0.25806 0.54578,0.65849 0.198735,0.39747 0.198735,0.94622 z m -0.406369,0 q 0,-0.86613 -0.54578,-1.31996 -0.545779,-0.45382 -1.62844,-0.45382 -1.0856273,0 -1.6373394,0.45976 -0.5517121,0.45679 -0.5517121,1.31402 0,0.86613 0.5517121,1.31996 0.5517121,0.45382 1.6373394,0.45382 1.082661,0 1.62844,-0.45382 0.54578,-0.45383 0.54578,-1.31996 z"
         style="font-style:normal;font-variant:normal;font-weight:normal;font-stretch:expanded;font-size:6.07476568px;font-family:'Stint Ultra Expanded';-inkscape-font-specification:'Stint Ultra Expanded, Expanded';font-variant-ligatures:normal;font-variant-caps:normal;font-variant-numeric:normal;font-feature-settings:normal;text-align:start;writing-mode:lr-tb;text-anchor:start;fill:#e6e6e6;stroke-width:0.20632961"
         id="path4787"
         inkscape:connector-curvature="0" />
      <path
         d="m 14.273922,306.81236 h 1.257666 l 3.535704,3.60096 v -3.26875 h -0.851298 v -0.33221 h 2.070404 v 0.33221 h -0.848332 v 3.74334 h -0.406368 l -3.535704,-3.5891 v 3.25392 h 0.848332 v 0.33518 h -2.070404 v -0.33518 h 0.851298 v -3.40816 h -0.851298 z"
         style="font-style:normal;font-variant:normal;font-weight:normal;font-stretch:expanded;font-size:6.07476568px;font-family:'Stint Ultra Expanded';-inkscape-font-specification:'Stint Ultra Expanded, Expanded';font-variant-ligatures:normal;font-variant-caps:normal;font-variant-numeric:normal;font-feature-settings:normal;text-align:start;writing-mode:lr-tb;text-anchor:start;fill:#e6e6e6;stroke-width:0.20632961"
         id="path4789"
         inkscape:connector-curvature="0" />
      <path
         d="m 24.878067,308.03146 v -0.87206 h -2.939498 v 1.40301 h 2.263206 v 0.34408 h -2.263206 v 1.63437 h 2.981025 v -0.93435 h 0.33518 v 1.2814 h -4.538277 v -0.33518 h 0.851297 v -3.40816 h -0.851297 v -0.33221 h 4.493784 v 1.2191 z"
         style="font-style:normal;font-variant:normal;font-weight:normal;font-stretch:expanded;font-size:6.07476568px;font-family:'Stint Ultra Expanded';-inkscape-font-specification:'Stint Ultra Expanded, Expanded';font-variant-ligatures:normal;font-variant-caps:normal;font-variant-numeric:normal;font-feature-settings:normal;text-align:start;writing-mode:lr-tb;text-anchor:start;fill:#e6e6e6;stroke-width:0.20632961"
         id="path4791"
         inkscape:connector-curvature="0" />
      <path
         d="m 25.681904,306.81236 h 2.070403 v 0.33221 h -0.777142 l 1.391145,1.70853 1.37928,-1.70853 h -0.771211 v -0.33221 h 2.070404 v 0.33221 h -0.854264 l -1.640305,2.01701 v 1.39115 h 0.910621 v 0.33518 h -2.192017 v -0.33518 h 0.910621 v -1.39115 l -1.640305,-2.01701 h -0.85723 z"
         style="font-style:normal;font-variant:normal;font-weight:normal;font-stretch:expanded;font-size:6.07476568px;font-family:'Stint Ultra Expanded';-inkscape-font-specification:'Stint Ultra Expanded, Expanded';font-variant-ligatures:normal;font-variant-caps:normal;font-variant-numeric:normal;font-feature-settings:normal;text-align:start;writing-mode:lr-tb;text-anchor:start;fill:#e6e6e6;stroke-width:0.20632961"
         id="path4793"
         inkscape:connector-curvature="0" />
    </g>
  </g>
</svg>
