<?xml version="1.0" encoding="UTF-8" standalone="no"?>
<svg
   xmlns:dc="http://purl.org/dc/elements/1.1/"
   xmlns:cc="http://creativecommons.org/ns#"
   xmlns:rdf="http://www.w3.org/1999/02/22-rdf-syntax-ns#"
   xmlns:svg="http://www.w3.org/2000/svg"
   xmlns="http://www.w3.org/2000/svg"
   xmlns:sodipodi="http://sodipodi.sourceforge.net/DTD/sodipodi-0.dtd"
   xmlns:inkscape="http://www.inkscape.org/namespaces/inkscape"
   id="svg2"
   height="1062.984"
   width="1103.3778"
   version="1.1"
   sodipodi:docname="CR RNT 404.svg"
   inkscape:version="0.92.4 5da689c313, 2019-01-14">
  <sodipodi:namedview
     pagecolor="#ffffff"
     bordercolor="#666666"
     borderopacity="1"
     objecttolerance="10"
     gridtolerance="10"
     guidetolerance="10"
     inkscape:pageopacity="0"
     inkscape:pageshadow="2"
     inkscape:window-width="1799"
     inkscape:window-height="1168"
     id="namedview28"
     showgrid="false"
     inkscape:zoom="0.62795752"
     inkscape:cx="56.954248"
     inkscape:cy="492.279"
     inkscape:window-x="498"
     inkscape:window-y="213"
     inkscape:window-maximized="0"
     inkscape:current-layer="svg2" />
  <defs
     id="defs4" />
  <metadata
     id="metadata7">
    <rdf:RDF>
      <cc:Work
         rdf:about="">
        <dc:format>image/svg+xml</dc:format>
        <dc:type
           rdf:resource="http://purl.org/dc/dcmitype/StillImage" />
        <dc:title />
      </cc:Work>
    </rdf:RDF>
  </metadata>
  <path
     d="M 551.67399,6.3638708 C 405.61868,6.3637029 259.54798,30.046844 119.4742,77.470895 c -0.25164,1.195127 -0.0308,0.03088 -0.0308,0.03088 C 43.139772,109.42019 -2.4045296,188.34289 8.1051467,270.38305 36.947672,414.74038 89.112037,552.47994 161.61975,678.4997 l 0.95715,1.75992 c 0.2832,0.49093 0.61149,0.96081 0.8954,1.45116 72.90881,125.91519 166.18022,240.0572 276.86352,337.28742 l -0.0308,0.031 c 65.79401,50.1216 156.97506,50.1216 222.76908,0 l -0.0308,-0.031 C 774.16262,921.395 867.73929,806.75487 940.77113,680.25962 1013.8019,553.767 1066.279,415.40781 1095.2429,270.38305 h 0.031 C 1105.7831,188.34297 1060.2081,109.38939 983.90451,77.470895 l -0.0306,0.03088 C 843.79042,30.072769 697.73736,6.3638017 551.67414,6.3638708 Z"
     id="path3877"
     style="fill:#ffffff;stroke:#000000;stroke-width:0.98802638"
     inkscape:connector-curvature="0" />
  <path
     d="m 663.04309,1018.9982 c -0.1425,0.1252 -0.2897,0.2455 -0.43226,0.3706 0.15227,-0.1152 0.31114,-0.2238 0.46314,-0.3396 l -0.0308,-0.031 z"
     id="path3875"
     style="opacity:0.15;fill:#00ff00;stroke-width:0.98802638"
     inkscape:connector-curvature="0" />
  <path
     d="m 440.73715,1019.3688 c -0.13695,-0.1202 -0.26448,-0.2502 -0.40138,-0.3706 l -0.0308,0.031 c 0.14544,0.1107 0.28658,0.2293 0.43226,0.3396 z"
     id="path3861"
     style="opacity:0.15;fill:#00ff00;stroke-width:0.98802638"
     inkscape:connector-curvature="0" />
  <path
     d="m 663.04309,1018.9982 c -0.11514,0.1012 -0.22445,0.2077 -0.33963,0.3089 0.12275,-0.093 0.24793,-0.1846 0.37051,-0.2779 l -0.0308,-0.031 z"
     id="path3859"
     style="opacity:0.15;fill:#00ff00;stroke-width:0.98802638"
     inkscape:connector-curvature="0" />
  <path
     d="m 440.6754,1019.3071 c -0.11517,-0.1012 -0.22449,-0.2077 -0.33963,-0.3089 l -0.0308,0.031 c 0.12258,0.093 0.24776,0.1848 0.37051,0.2779 z"
     id="path3844"
     style="opacity:0.15;fill:#00ff00;stroke-width:0.98802638"
     inkscape:connector-curvature="0" />
  <path
     d="m 440.30489,1018.9982 v 0.031 c 0.0817,0.062 0.16521,0.1231 0.24701,0.1852 -0.0822,-0.072 -0.16484,-0.1439 -0.24701,-0.2162 z"
     id="path3842"
     style="opacity:0.15;fill:#00ff00;stroke-width:0.98802638"
     inkscape:connector-curvature="0" />
  <path
     d="M 551.68752,41.377056 C 409.65307,41.37508 267.64417,64.398397 131.40579,110.44628 71.126282,136.49405 35.02521,199.0113 42.60692,264.23876 c 27.966462,139.62161 78.30285,272.87774 148.23483,394.9018 1.40489,2.45138 2.8402,4.90618 4.26087,7.34844 70.70086,121.54148 160.90596,231.73808 267.8169,325.73995 52.69779,39.17965 124.86908,39.17965 177.56687,0 C 748.48972,897.2637 839.44437,785.76327 910.4646,662.75303 981.48433,539.74272 1032.5601,405.24738 1060.799,264.23876 1068.3808,199.01129 1032.2797,136.49405 972.00012,110.44628 835.76205,64.400087 693.72196,41.378963 551.68752,41.377056 Z m 0.0308,35.013185 c 137.65496,-0.0039 275.29251,22.229319 407.37563,66.660909 45.16545,20.0334 72.26505,66.93114 67.03145,116.06222 l -0.031,0.0308 c -4.0764,20.207 -8.6794,40.26022 -13.709,60.17698 H 91.020361 c -5.031804,-19.9218 -9.600872,-39.99578 -13.678139,-60.20778 l -0.06175,0.0308 C 72.047172,210.01306 99.146483,163.08449 144.31189,143.0511 276.39551,98.614769 414.06343,76.394193 551.71839,76.390241 Z M 100.99305,356.43397 H 1002.4436 C 973.60139,457.71917 932.46892,554.70233 880.17542,645.27731 811.34979,764.48664 723.24792,872.58133 618.71893,964.74947 v 0.0308 c -39.93213,29.09767 -94.09982,29.09767 -134.03195,0 C 380.16947,872.60996 292.11162,764.52159 223.29225,645.30819 171.00434,554.73171 129.8441,457.7237 100.9931,356.43397 Z"
     id="path3943"
     style="fill:#000000;stroke-width:0.98802638"
     inkscape:connector-curvature="0" />
  <path
     d="m 618.67453,964.74947 c -0.093,0.0819 -0.18491,0.16508 -0.27788,0.24701 0.10168,-0.0736 0.20727,-0.14218 0.30876,-0.21613 l -0.0308,-0.0308 z"
     id="path3956"
     style="opacity:0.15;fill:#d40000;stroke-width:0.98802638"
     inkscape:connector-curvature="0" />
  <path
     d="m 484.85871,964.90385 c -0.0603,-0.0532 -0.125,-0.10124 -0.18526,-0.15438 v 0.0308 c 0.06,0.0437 0.12525,0.0799 0.18526,0.1235 z"
     id="path3801"
     style="opacity:0.15;fill:#d40000;stroke-width:0.98802638"
     inkscape:connector-curvature="0" />
  <g
     id="text849"
     style="font-size:186.01190186px;font-family:'Roadgeek 2005 Series C';-inkscape-font-specification:'Roadgeek 2005 Series C';text-anchor:middle;fill:#000000;stroke-width:50.00000381;stroke-linecap:round;stroke-linejoin:round;paint-order:fill markers stroke"
     aria-label="COSTA RICA"
     transform="matrix(0.98802639,0,0,0.98802639,6.605708,6.3638708)">
    <path
       id="path851"
       d="m 220.53977,181.20603 q -2.79018,-18.04316 -14.88095,-18.04316 -5.39435,0 -9.3006,2.41816 -3.72023,2.23214 -6.13839,7.44047 -2.23214,5.02233 -3.34821,13.39286 -0.93006,8.37054 -0.93006,20.46131 0,26.97173 4.83631,38.69048 5.02232,11.71875 16.55506,11.71875 3.90625,0 6.3244,-1.4881 2.60417,-1.48809 4.09226,-3.90625 1.67411,-2.60417 2.23215,-5.76637 0.55803,-3.34821 0.55803,-6.88244 h 17.85714 q -0.18601,7.8125 -2.60416,14.32292 -2.41816,6.51041 -6.51042,11.34672 -4.09226,4.6503 -9.85863,7.25447 -5.58036,2.60417 -12.09077,2.60417 -20.08929,0 -29.38988,-16.36905 -9.11459,-16.36905 -9.11459,-50.96726 0,-30.50596 9.3006,-46.13095 9.30059,-15.625 27.90178,-15.625 7.62649,0 13.9509,3.34821 6.3244,3.1622 10.60267,9.30059 3.53423,4.6503 5.20834,9.48661 1.6741,4.83631 2.60416,13.39286 z"
       inkscape:connector-curvature="0" />
    <path
       id="path853"
       d="m 334.21048,210.03787 q 0,14.32292 -1.6741,24.36756 -1.4881,10.04465 -5.39435,18.97322 -4.6503,11.16071 -11.71875,16.36904 -6.88244,5.02233 -17.48512,5.02233 -11.16071,0 -18.22916,-5.02233 -6.88245,-5.20833 -11.53274,-16.36904 -3.90625,-9.11459 -5.58036,-18.97322 -1.4881,-10.04464 -1.4881,-24.36756 0,-14.1369 1.4881,-24.18154 1.67411,-10.23066 5.58036,-19.15923 4.83631,-11.16071 11.71875,-15.99702 7.06845,-5.02232 18.04315,-5.02232 10.78869,0 17.67113,5.02232 6.88244,4.83631 11.53274,16.36904 1.86012,4.6503 3.1622,9.3006 1.4881,4.6503 2.23215,9.85863 0.93005,5.02232 1.30208,10.9747 0.37202,5.76637 0.37202,12.83482 z m -17.11309,0 q 0,-5.20833 -0.37203,-9.4866 -0.18601,-4.27828 -0.74404,-7.8125 -0.37203,-3.72024 -1.11608,-7.06846 -0.74404,-3.34821 -1.6741,-6.69642 -2.41816,-8.37054 -6.1384,-12.09078 -3.53422,-3.72024 -9.11458,-3.72024 -11.53274,0 -15.81101,15.43899 -2.23214,7.06845 -3.1622,14.32292 -0.74405,7.06845 -0.74405,17.48512 0,5.02232 0.18601,9.30059 0.37203,4.09226 0.74405,7.8125 0.55804,3.53423 1.30208,7.06845 0.74405,3.53423 1.67411,7.25447 4.27827,15.43899 15.81101,15.43899 5.58036,0 9.11458,-3.72024 3.72024,-3.72024 6.1384,-11.71875 1.11607,-3.72024 1.86012,-7.06845 0.74404,-3.53423 1.11607,-7.25447 0.55803,-3.72024 0.74405,-7.8125 0.18601,-4.27827 0.18601,-9.67262 z"
       inkscape:connector-curvature="0" />
    <path
       id="path855"
       d="m 422.68239,238.49769 q 0,7.62649 -2.79018,14.32292 -2.60416,6.51042 -7.44047,11.34673 -4.6503,4.83631 -10.97471,7.8125 -6.13839,2.79018 -13.39285,2.79018 -8.18453,0 -14.69494,-3.16221 -6.51042,-3.1622 -10.97471,-8.55654 -4.46428,-5.39435 -6.88244,-12.4628 -2.41815,-7.06845 -2.41815,-14.69494 h 17.48512 q 0,3.90625 0.93006,7.8125 1.11607,3.72024 3.1622,6.88244 2.23214,2.97619 5.39434,4.83631 3.34822,1.86012 7.99852,1.86012 3.53422,0 6.69643,-1.4881 3.34821,-1.48809 5.58035,-4.09226 2.41816,-2.60417 3.72024,-5.95238 1.4881,-3.53423 1.4881,-7.25447 0,-5.39434 -2.23215,-9.4866 -2.23214,-4.27828 -7.8125,-8.55655 -0.93006,-0.93006 -0.74404,-0.93006 0.18601,-0.18601 -1.11608,-1.11607 -1.30208,-0.93006 -5.58035,-3.53423 -4.09227,-2.79018 -13.57887,-9.30059 -7.62649,-5.20834 -11.53274,-12.09078 -3.72024,-7.06845 -3.72024,-15.43898 0,-6.69643 2.41816,-12.4628 2.41815,-5.95238 6.69642,-10.41667 4.46429,-4.46428 10.23066,-6.88244 5.76637,-2.60416 12.4628,-2.60416 6.69643,0 12.27678,2.41815 5.76637,2.41815 9.85863,6.69643 4.27828,4.27827 6.69643,10.23065 2.60417,5.95238 2.79018,13.02084 H 405.5693 q -0.37203,-6.51042 -4.46429,-10.41667 -4.09226,-3.90625 -10.04464,-3.90625 -6.1384,0 -10.41667,4.09226 -4.27827,4.09226 -4.27827,10.23066 0,4.65029 2.41815,7.8125 2.41816,3.1622 9.3006,7.06845 18.04315,10.41666 26.22767,21.20536 8.37054,10.78869 8.37054,24.36755 z"
       inkscape:connector-curvature="0" />
    <path
       id="path857"
       d="M 474.60296,164.46496 V 272.53787 H 456.5598 V 164.46496 H 433.86635 V 147.9099 h 63.43006 v 16.55506 z"
       inkscape:connector-curvature="0" />
    <path
       id="path859"
       d="m 566.46669,272.53787 -8.74256,-34.04018 h -26.78571 l -8.18453,34.04018 H 504.71074 L 535.77473,147.9099 h 17.48512 l 31.06398,124.62797 z m -22.32143,-87.42559 -8.74256,35.9003 h 17.85715 z"
       inkscape:connector-curvature="0" />
    <path
       id="path861"
       d="m 687.97897,272.53787 -16.55506,-58.59375 h -17.1131 v 58.59375 H 636.45367 V 147.9099 h 37.20238 q 7.25447,0 13.20685,2.41815 6.13839,2.41816 10.41666,6.69643 4.46429,4.27828 6.69643,10.60268 2.41816,6.13839 2.41816,13.57887 0,11.16071 -4.46429,18.97321 -4.46428,7.8125 -13.39286,11.16072 l 17.85715,61.19791 z m 0.93006,-91.33184 q 0,-7.25447 -4.46429,-11.53274 -4.46428,-4.27827 -11.71875,-4.27827 h -18.41518 v 31.43601 h 18.41518 q 7.8125,0 11.90476,-3.90625 4.27828,-4.09226 4.27828,-11.71875 z"
       inkscape:connector-curvature="0" />
    <path
       id="path863"
       d="M 727.27978,272.53787 V 147.9099 h 17.48512 v 124.62797 z"
       inkscape:connector-curvature="0" />
    <path
       id="path865"
       d="m 821.80869,181.20603 q -2.79018,-18.04316 -14.88095,-18.04316 -5.39435,0 -9.3006,2.41816 -3.72023,2.23214 -6.13839,7.44047 -2.23214,5.02233 -3.34821,13.39286 -0.93006,8.37054 -0.93006,20.46131 0,26.97173 4.83631,38.69048 5.02232,11.71875 16.55506,11.71875 3.90625,0 6.3244,-1.4881 2.60417,-1.48809 4.09226,-3.90625 1.67411,-2.60417 2.23215,-5.76637 0.55803,-3.34821 0.55803,-6.88244 h 17.85714 q -0.18601,7.8125 -2.60416,14.32292 -2.41816,6.51041 -6.51042,11.34672 -4.09226,4.6503 -9.85863,7.25447 -5.58036,2.60417 -12.09077,2.60417 -20.08929,0 -29.38988,-16.36905 -9.11459,-16.36905 -9.11459,-50.96726 0,-30.50596 9.3006,-46.13095 9.30059,-15.625 27.90178,-15.625 7.62649,0 13.9509,3.34821 6.3244,3.1622 10.60267,9.30059 3.53423,4.6503 5.20834,9.48661 1.6741,4.83631 2.60416,13.39286 z"
       inkscape:connector-curvature="0" />
    <path
       id="path867"
       d="m 916.69222,272.53787 -8.74256,-34.04018 h -26.78572 l -8.18452,34.04018 H 854.93626 L 886.00025,147.9099 h 17.48512 l 31.06399,124.62797 z m -22.32143,-87.42559 -8.74256,35.9003 h 17.85714 z"
       inkscape:connector-curvature="0" />
  </g>
  <g
     transform="matrix(0.88844547,0,0,0.98802639,114.30798,-6.5011319)"
     id="text2694"
     style="font-size:373.13433838px;font-family:'Roadgeek 2005 Series C';-inkscape-font-specification:'Roadgeek 2005 Series C';text-anchor:middle;overflow:visible;fill:#000000;stroke-width:25;stroke-linecap:round;paint-order:fill markers stroke"
     aria-label="126">
    <g
       aria-label="257"
       transform="matrix(8.9671157,0,0,9.8901115,-3003.4029,-2090.2069)"
       style="font-style:normal;font-weight:normal;font-size:6.88300085px;line-height:125%;font-family:Sans;letter-spacing:0px;word-spacing:0px;fill:#000000;fill-opacity:1;stroke:none;stroke-width:0.17207502px;stroke-linecap:butt;stroke-linejoin:miter;stroke-opacity:1"
       id="text886">
      <g
         aria-label="404"
         transform="scale(1.0055652,0.99446561)"
         style="font-style:normal;font-weight:normal;font-size:6.87477589px;line-height:125%;font-family:Sans;letter-spacing:0px;word-spacing:0px;fill:#000000;fill-opacity:1;stroke:none;stroke-width:0.17186943px;stroke-linecap:butt;stroke-linejoin:miter;stroke-opacity:1"
         id="text886-8">
        <path
           d="m 371.47993,275.63413 h -3.84989 v 5.34271 h -4.5832 v -5.34271 h -16.15907 v -4.21655 l 16.15907,-16.63048 h 4.5832 v 16.63048 h 3.84989 z m -8.43309,-4.21655 v -10.4497 l -10.18781,10.4497 z"
           style="font-style:normal;font-variant:normal;font-weight:normal;font-stretch:normal;font-size:45.83204269px;font-family:'Roadgeek 2014 Series E';-inkscape-font-specification:'Roadgeek 2014 Series E, Normal';font-variant-ligatures:normal;font-variant-caps:normal;font-variant-numeric:normal;font-feature-settings:normal;text-align:start;writing-mode:lr-tb;text-anchor:start;stroke-width:0.17186943px"
           id="path837"
           inkscape:connector-curvature="0" />
        <path
           d="m 399.45049,267.75102 q 0,2.64516 -0.60237,5.00224 -0.60236,2.35708 -1.85947,4.3475 -1.25711,1.99042 -3.45704,3.16895 -2.17375,1.15235 -4.97605,1.15235 -5.47366,0 -8.27596,-3.92846 -2.77611,-3.95465 -2.77611,-9.66401 0,-5.65699 2.8023,-9.55926 2.8023,-3.92846 8.22358,-3.92846 5.44746,0 8.17119,3.95465 2.74993,3.92846 2.74993,9.4545 z m -4.66178,0 v 0.0786 q 0,-4.13798 -1.64995,-6.46887 -1.62376,-2.33088 -4.5832,-2.33088 -3.19515,0 -4.79273,2.67135 -1.59757,2.64516 -1.59757,6.04983 0,4.29512 1.67614,6.65219 1.70234,2.35708 4.71416,2.35708 2.88087,0 4.55701,-2.46184 1.67614,-2.46183 1.67614,-6.54743 z"
           style="font-style:normal;font-variant:normal;font-weight:normal;font-stretch:normal;font-size:45.83204269px;font-family:'Roadgeek 2014 Series E';-inkscape-font-specification:'Roadgeek 2014 Series E, Normal';font-variant-ligatures:normal;font-variant-caps:normal;font-variant-numeric:normal;font-feature-settings:normal;text-align:start;writing-mode:lr-tb;text-anchor:start;stroke-width:0.17186943px"
           id="path839"
           inkscape:connector-curvature="0" />
        <path
           d="m 428.46866,275.63413 h -3.84989 v 5.34271 h -4.58321 v -5.34271 h -16.15907 v -4.21655 l 16.15907,-16.63048 h 4.58321 v 16.63048 h 3.84989 z m -8.4331,-4.21655 v -10.4497 l -10.18781,10.4497 z"
           style="font-style:normal;font-variant:normal;font-weight:normal;font-stretch:normal;font-size:45.83204269px;font-family:'Roadgeek 2014 Series E';-inkscape-font-specification:'Roadgeek 2014 Series E, Normal';font-variant-ligatures:normal;font-variant-caps:normal;font-variant-numeric:normal;font-feature-settings:normal;text-align:start;writing-mode:lr-tb;text-anchor:start;stroke-width:0.17186943px"
           id="path841"
           inkscape:connector-curvature="0" />
      </g>
    </g>
  </g>
</svg>
